<svg width="24" height="24" viewBox="0 0 24 24" fill="none" xmlns="http://www.w3.org/2000/svg">
<path d="M18.5078 6.06169C17.2904 5.498 16.0033 5.09892 14.6806 4.875H14.6217C14.4453 5.1956 14.2864 5.52573 14.1466 5.86389C12.7243 5.64631 11.2773 5.64631 9.85493 5.86389C9.72638 5.55734 9.52837 5.18156 9.37014 4.875H9.30158C7.98243 5.10045 6.69856 5.49948 5.4841 6.06169C3.30867 9.17776 2.32316 12.9706 2.70573 16.7516C4.12322 17.8013 5.70728 18.6038 7.39235 19.125H7.46189C7.83465 18.6328 8.16544 18.1101 8.45078 17.5625V17.4735C7.94401 17.2851 7.45486 17.0535 6.98772 16.7813V16.6824L7.27454 16.4451H7.3431C8.81881 17.139 10.4299 17.4987 12.0606 17.4987C13.6913 17.4987 15.3015 17.139 16.7772 16.4451H16.8467L17.1335 16.6824V16.7813C16.662 17.0517 16.169 17.2832 15.6599 17.4735V17.5625C15.9504 18.1039 16.2809 18.6229 16.6488 19.1151H16.7183C18.4065 18.5942 19.9946 17.7918 21.4155 16.7417C21.814 12.9564 20.8262 9.15496 18.6362 6.04189L18.5078 6.06169ZM8.8757 14.6453C8.41426 14.5874 7.98977 14.3631 7.68207 14.0144C7.37437 13.6657 7.20501 13.2166 7.20501 12.7516C7.20501 12.2865 7.37437 11.8375 7.68207 11.4888C7.98977 11.1401 8.41426 10.9157 8.8757 10.8578C9.33713 10.9157 9.76162 11.1401 10.0693 11.4888C10.377 11.8375 10.5474 12.2865 10.5474 12.7516C10.5474 13.2166 10.377 13.6657 10.0693 14.0144C9.76162 14.3631 9.33713 14.5874 8.8757 14.6453ZM15.1258 14.6453C14.6644 14.5874 14.2399 14.3631 13.9322 14.0144C13.6245 13.6657 13.4551 13.2166 13.4551 12.7516C13.4551 12.2865 13.6245 11.8375 13.9322 11.4888C14.2399 11.1401 14.6644 10.9157 15.1258 10.8578C15.5873 10.9157 16.0117 11.1401 16.3194 11.4888C16.6271 11.8375 16.7965 12.2865 16.7965 12.7516C16.7965 13.2166 16.6271 13.6657 16.3194 14.0144C16.0117 14.3631 15.5873 14.5874 15.1258 14.6453Z" fill="#EBEBEB"/>
</svg>
