<svg width="24" height="24" viewBox="0 0 24 24" fill="none" xmlns="http://www.w3.org/2000/svg">
<path d="M12 3C9.55575 3 9.24926 3.01037 8.2893 3.05415C7.33136 3.09785 6.67712 3.25002 6.10464 3.47246C5.51281 3.70246 5.0109 4.01022 4.51057 4.51055C4.01022 5.01088 3.70246 5.51284 3.47249 6.10467C3.24999 6.67712 3.09788 7.33136 3.05412 8.2893C3.01034 9.24926 3 9.55575 3 12C3 14.4442 3.01034 14.7507 3.05412 15.7107C3.09788 16.6686 3.24999 17.3229 3.47249 17.8953C3.70249 18.4872 4.01025 18.9891 4.51057 19.4895C5.01093 19.9898 5.51281 20.2975 6.10464 20.5275C6.67712 20.75 7.33136 20.9021 8.2893 20.9458C9.24926 20.9896 9.55575 21 12 21C14.4442 21 14.7507 20.9896 15.7107 20.9458C16.6686 20.9021 17.3229 20.75 17.8953 20.5275C18.4872 20.2975 18.9891 19.9898 19.4895 19.4895C19.9898 18.9891 20.2975 18.4872 20.5275 17.8953C20.75 17.3229 20.9021 16.6686 20.9458 15.7107C20.9896 14.7507 21 14.4442 21 12C21 9.55575 20.9896 9.24926 20.9458 8.2893C20.9021 7.33136 20.75 6.67712 20.5275 6.10467C20.2975 5.51284 19.9898 5.01088 19.4895 4.51055C18.9891 4.01022 18.4872 3.70246 17.8953 3.47246C17.3229 3.25002 16.6686 3.09785 15.7107 3.05415C14.7507 3.01037 14.4442 3 12 3ZM12 4.62161C14.4031 4.62161 14.6877 4.6308 15.6368 4.6741C16.5143 4.7141 16.9908 4.86072 17.3079 4.98397C17.7281 5.14726 18.0279 5.34227 18.3428 5.6572C18.6577 5.97214 18.8527 6.27197 19.016 6.69205C19.1393 7.00918 19.2859 7.48575 19.3259 8.36323C19.3692 9.31225 19.3784 9.59691 19.3784 12C19.3784 14.4031 19.3692 14.6877 19.3259 15.6368C19.2859 16.5143 19.1393 16.9908 19.016 17.3079C18.8527 17.7281 18.6577 18.0279 18.3428 18.3428C18.0279 18.6577 17.728 18.8527 17.308 19.016C16.9908 19.1393 16.5143 19.2859 15.6368 19.3259C14.6879 19.3692 14.4033 19.3784 12 19.3784C9.59672 19.3784 9.31214 19.3692 8.36323 19.3259C7.48572 19.2859 7.00918 19.1393 6.69208 19.016C6.27194 18.8527 5.97214 18.6577 5.65723 18.3428C5.34229 18.0279 5.14726 17.728 4.98397 17.308C4.86072 16.9908 4.71413 16.5143 4.6741 15.6368C4.6308 14.6877 4.62161 14.4031 4.62161 12C4.62161 9.59691 4.6308 9.31225 4.6741 8.36323C4.71413 7.48572 4.86072 7.00918 4.98397 6.69208C5.14726 6.27194 5.34229 5.97214 5.6572 5.65723C5.97214 5.34227 6.27197 5.14726 6.69205 4.98397C7.00918 4.86072 7.48575 4.7141 8.36323 4.6741C9.31225 4.6308 9.59691 4.62161 12 4.62161" fill="#EBEBEB"/>
<path d="M11.9996 15.0005C10.3427 15.0005 8.99954 13.6573 8.99954 12.0005C8.99954 10.3436 10.3427 9.00044 11.9996 9.00044C13.6564 9.00044 14.9996 10.3436 14.9996 12.0005C14.9996 13.6573 13.6564 15.0005 11.9996 15.0005ZM11.9996 7.37883C9.44708 7.37883 7.37793 9.44798 7.37793 12.0005C7.37793 14.5529 9.44708 16.6221 11.9996 16.6221C14.552 16.6221 16.6212 14.5529 16.6212 12.0005C16.6212 9.44798 14.552 7.37883 11.9996 7.37883ZM17.8838 7.19623C17.8838 7.79272 17.4002 8.27622 16.8038 8.27622C16.2073 8.27622 15.7238 7.79272 15.7238 7.19623C15.7238 6.59977 16.2073 6.11621 16.8038 6.11621C17.4002 6.11621 17.8838 6.59977 17.8838 7.19623Z" fill="#EBEBEB"/>
</svg>
