<svg width="20" height="20" viewBox="0 0 20 20" fill="none" xmlns="http://www.w3.org/2000/svg">
<path d="M14.8327 7.50033C14.8327 8.06916 14.5553 8.97668 14.0158 10.1277C13.4939 11.2411 12.789 12.4552 12.0709 13.5906C11.3549 14.7225 10.6373 15.7582 10.0977 16.5119C10.0642 16.5587 10.0314 16.6044 9.99935 16.6489C9.9673 16.6044 9.93451 16.5587 9.90101 16.5119C9.36145 15.7582 8.64378 14.7225 7.92782 13.5906C7.20968 12.4552 6.50484 11.2411 5.98293 10.1277C5.44336 8.97668 5.16602 8.06916 5.16602 7.50033C5.16602 4.83095 7.32997 2.66699 9.99935 2.66699C12.6687 2.66699 14.8327 4.83095 14.8327 7.50033Z" stroke="#1F1F1F" stroke-width="2"/>
<path d="M10 9C11.1046 9 12 8.10457 12 7C12 5.89543 11.1046 5 10 5C8.89543 5 8 5.89543 8 7C8 8.10457 8.89543 9 10 9Z" fill="#1F1F1F"/>
</svg>
