<?xml version="1.0" standalone="no"?>
<!DOCTYPE svg PUBLIC "-//W3C//DTD SVG 20010904//EN"
 "http://www.w3.org/TR/2001/REC-SVG-20010904/DTD/svg10.dtd">
<svg version="1.0" xmlns="http://www.w3.org/2000/svg"
 width="512.000000pt" height="512.000000pt" viewBox="0 0 512.000000 512.000000"
 preserveAspectRatio="xMidYMid meet">

<g transform="translate(0.000000,512.000000) scale(0.100000,-0.100000)"
fill="#000000" stroke="none">
<path d="M2227 4825 c-457 -74 -835 -318 -1079 -695 -96 -147 -161 -294 -199
-445 -19 -76 -24 -86 -48 -91 -241 -52 -382 -119 -545 -258 -141 -121 -271
-334 -323 -531 -24 -89 -27 -118 -26 -260 0 -141 3 -172 26 -260 91 -344 348
-626 673 -739 171 -60 156 -59 959 -65 l739 -6 14 -80 c77 -463 439 -884 897
-1042 241 -83 524 -95 776 -32 433 107 799 441 948 862 131 372 96 788 -93
1120 l-45 79 5 111 c27 522 -346 997 -856 1091 l-65 12 -21 80 c-157 583 -606
1007 -1202 1135 -129 27 -408 35 -535 14z m417 -316 c167 -22 347 -92 505
-196 104 -68 268 -231 334 -330 117 -177 190 -378 212 -588 12 -112 -3 -102
147 -108 153 -6 221 -22 333 -77 173 -84 315 -246 381 -432 12 -34 5 -53 -11
-28 -12 19 -170 106 -265 147 -171 72 -327 103 -519 103 -277 0 -525 -74 -755
-223 -106 -69 -274 -231 -349 -336 -118 -163 -209 -376 -240 -558 l-13 -78
-704 -3 c-606 -2 -716 0 -783 13 -261 53 -478 245 -564 500 -25 73 -27 93 -27
230 0 138 2 156 27 230 41 117 99 209 186 295 154 151 330 220 560 220 l100 0
5 33 c3 17 11 68 17 112 30 219 104 407 233 585 66 92 218 235 317 300 266
172 544 232 873 189z m1231 -1830 c347 -43 641 -242 800 -542 97 -182 119
-276 119 -497 0 -219 -23 -317 -116 -490 -136 -254 -373 -443 -648 -519 -154
-42 -369 -45 -522 -6 -533 135 -876 656 -782 1189 58 334 266 613 569 761 198
98 375 129 580 104z"/>
<path d="M3295 2100 l-110 -110 175 -175 175 -175 -175 -175 -175 -175 105
-105 c58 -58 109 -105 115 -105 6 0 84 74 175 165 91 91 169 165 175 165 6 0
87 -76 180 -170 l170 -170 107 107 c60 59 108 112 108 118 0 6 -77 87 -170
180 l-170 170 172 172 173 173 -110 110 -110 110 -172 -172 -173 -173 -173
173 c-95 94 -174 172 -177 172 -3 0 -55 -50 -115 -110z"/>
</g>
</svg>
