<svg width="24" height="24" viewBox="0 0 24 24" fill="none" xmlns="http://www.w3.org/2000/svg">
<path d="M8.68136 19.6904C15.508 19.6904 19.2325 14.0361 19.2325 9.13928C19.2325 8.97695 19.2325 8.81463 19.2234 8.66132C19.9449 8.13828 20.5762 7.47996 21.0721 6.74048C20.4048 7.03808 19.6924 7.23647 18.9439 7.32665C19.7104 6.86673 20.2966 6.14529 20.5762 5.27054C19.8637 5.69439 19.0701 6.001 18.2224 6.17234C17.5461 5.4509 16.5812 5 15.517 5C13.4699 5 11.8106 6.65932 11.8106 8.70641C11.8106 8.99499 11.8467 9.28357 11.9098 9.55411C8.81663 9.39178 6.07515 7.91283 4.25351 5.67635C3.92886 6.21744 3.7485 6.85772 3.7485 7.53407C3.7485 8.82365 4.40681 9.95992 5.3988 10.6182C4.78557 10.6092 4.21743 10.4379 3.72144 10.1583C3.72144 10.1764 3.72144 10.1854 3.72144 10.2034C3.72144 11.998 5.002 13.504 6.69739 13.8377C6.38176 13.9188 6.05711 13.9639 5.72345 13.9639C5.48898 13.9639 5.25451 13.9369 5.02906 13.9008C5.498 15.3707 6.86874 16.4439 8.49198 16.48C7.22044 17.4719 5.62425 18.0671 3.88377 18.0671C3.58617 18.0671 3.28858 18.0491 3 18.013C4.63226 19.0772 6.58016 19.6904 8.68136 19.6904Z" fill="#EBEBEB"/>
</svg>
