<?xml version="1.0" encoding="UTF-8"?>
<svg width="640px" height="95px" viewBox="0 0 640 95" version="1.1" xmlns="http://www.w3.org/2000/svg" xmlns:xlink="http://www.w3.org/1999/xlink">
    <title>VerticalCrypto_White_Art</title>
    <g id="Main-Website-Prop5" stroke="none" stroke-width="1" fill="none" fill-rule="evenodd">
        <g id="Desktop-HD" transform="translate(-118.000000, -61.000000)" fill="#FFFFFF" fill-rule="nonzero">
            <g id="VerticalCrypto_White_Art" transform="translate(118.000000, 61.000000)">
                <path d="M25.9048591,70.0353896 C26.3164557,70.3781833 26.6508779,70.6682395 27.0110249,71.0110332 C27.5255206,70.826452 28.1171907,70.720977 28.5802368,70.4309208 C29.3519804,69.9562834 30.0979992,69.376171 30.355247,68.4268961 C31.2813393,65.1571716 32.7476521,62.0720283 33.9309922,58.9077788 C34.0338914,58.6440913 34.1625153,58.4067726 34.316864,58.1958226 C34.805635,57.4838665 35.165782,56.7455416 35.2172315,55.8490042 C35.2944059,54.6360419 35.757452,53.5285546 36.2204982,52.4210672 C36.6320947,51.4190549 36.9922417,50.364305 37.4038383,49.3359239 C37.7639853,48.3866491 38.1498571,47.4373742 38.5100041,46.4880994 C38.8701511,45.486087 39.2045733,44.4577059 39.5904451,43.4556936 C39.9248673,42.5855249 40.2850143,41.7417251 40.6708861,40.8451877 C40.6451613,40.2650753 40.5679869,39.6058566 40.5679869,38.946638 C40.5679869,38.6565818 40.6451613,38.3401568 40.7737852,38.1028381 C41.0567579,37.5227257 41.3911801,36.968982 41.6741527,36.4416071 C41.6484279,35.729651 41.5969784,35.0968011 41.5712536,34.4112137 C42.2143732,33.9365762 42.8574929,33.4883075 43.5520621,32.9873014 C43.8093099,31.985289 44.0922826,30.9305392 44.3752552,29.9021581 C44.4781543,29.5593644 44.5810535,29.2429394 44.761127,28.9528832 C45.7386688,27.3971272 46.5104124,25.7095274 47.2564312,24.0219277 C47.8481013,22.6771216 48.6198448,21.4114218 49.314414,20.1193533 C49.5202123,19.7501908 49.7517354,19.4073971 49.9575337,19.0382347 C50.4720294,18.0889598 50.9608003,17.0869475 51.5267456,16.1376726 C52.0926909,15.2147665 52.7358105,14.3709666 53.3789302,13.4744293 C53.3532054,12.8943168 53.3017558,12.2614669 53.2503062,11.5495108 C53.5332789,10.9693984 53.8162515,10.3101797 54.1763985,9.70369856 C54.7680686,8.72805496 54.9738669,7.67330511 55.076766,6.56581778 C55.1796652,5.22101173 55.7198857,4.19263063 56.9032258,3.53341198 C57.0575745,3.45430574 57.1861984,3.32246201 57.3148224,3.24335577 C57.6749694,2.53139963 57.957942,1.81944348 58.3952634,1.18659357 C58.678236,0.764693637 59.1670069,0.501006176 59.5528787,0.184581223 C60.0673744,0.13184373 60.5561454,0.0791062383 61.0963659,0 C61.5336872,0.316424953 62.0224581,0.632849906 62.5626786,1.00201235 C62.7170274,1.45028104 62.8971009,1.95128721 63,2.32044966 C62.9742752,3.69162445 62.3311556,4.64089931 61.559412,5.48469919 C60.7619437,6.38123656 60.2217232,7.35688016 59.7844018,8.4643675 C59.1670069,10.072861 58.4467129,11.628617 57.5206207,13.0788981 C56.4401797,14.7928666 55.565537,16.6650475 55.076766,18.6690722 C54.8195182,19.6710846 54.4593712,20.6730969 54.0734994,21.6487405 C52.5814618,25.3139963 51.0636995,28.979252 49.3401388,32.5654014 C48.722744,33.85747 48.3883218,35.2286448 48.1053491,36.6261883 C47.6165782,38.9993755 47.1020825,41.3725626 46.6647611,43.7457498 C46.3560637,45.4069808 46.1502654,47.1209493 45.8672928,48.7821803 C45.4299714,51.3926861 44.9412005,54.003192 44.4781543,56.6136979 C44.4267048,56.8510166 44.3752552,57.114704 44.3752552,57.3520228 C44.3752552,58.9341475 44.1437321,60.4899035 43.7064108,62.0192908 C43.4491629,62.9158282 43.2433646,63.8123656 43.0632911,64.7089029 C42.6516946,66.5547151 42.0085749,68.2950524 41.1853818,69.9826521 C40.6451613,71.1165082 40.1049408,72.2239956 39.5389955,73.3314829 C39.0502246,74.2807578 38.6129032,75.2564014 38.4071049,76.33752 C38.3556554,76.5221012 38.3042058,76.7330511 38.2270314,76.8912636 C37.4810127,78.2624384 36.7607187,79.6863507 35.525929,80.6883631 C35.1143324,81.0311568 34.8570845,81.4794254 34.7027358,81.9804316 C34.316864,83.2197627 33.725194,84.32725 32.9020008,85.3028936 C32.6962025,85.5402123 32.5675786,85.8566373 32.516129,86.1730622 C32.2074316,87.755187 31.7701102,89.2845743 31.1784402,90.7612241 C31.0240915,91.1303865 30.8182932,91.4468115 30.5353205,91.7368677 C28.322989,93.7936299 28.322989,93.7936299 25.5961617,94.9802234 C25.5447121,95.0065922 25.4932626,95.0065922 25.5961617,94.9802234 C23.7697019,94.9802234 22.20049,94.4528485 20.6827276,93.5299424 C20.3483054,92.9234612 19.9624336,92.2115051 19.6022866,91.499549 C19.5251123,91.3677052 19.4993875,91.2094927 19.4479379,91.077649 C19.0877909,89.521893 18.9334422,87.966137 19.0106166,86.3840122 C19.0106166,86.1730622 19.0877909,85.9357435 19.1649653,85.7247936 C19.3450388,85.1710499 19.5508371,84.5909375 19.7566354,84.0635626 C19.3450388,82.7978627 18.9848918,81.5585317 18.5475704,80.3455694 C18.0330747,78.9216571 18.0587995,77.4450073 18.0073499,75.9683575 C18.0073499,75.6255638 18.0330747,75.2564014 18.0587995,74.9136077 C18.1874234,73.6479078 18.1359739,72.4349455 17.7501021,71.1956145 C17.5957534,70.6946083 17.5700286,70.1144959 17.5443038,69.5607522 C17.518579,68.8224273 17.5443038,68.0577337 17.5443038,67.29304 C17.2356064,66.8184026 16.9269089,66.3173964 16.6439363,65.842759 C16.6696611,65.3681216 16.6439363,64.8671154 16.7211107,64.4188467 C16.798285,63.9178405 16.7211107,63.4695719 16.5153124,63.0476719 C15.7692936,61.3337034 15.4091466,59.4615224 14.9203757,57.6684477 C14.6888526,56.8773853 14.5345039,56.0599542 14.045733,55.3743668 C13.556962,54.6624107 13.325439,53.8449795 13.1710902,53.0011797 C13.0167415,52.131011 12.8881176,51.2608424 12.6565945,50.4170425 C12.3478971,49.3622927 12.3993467,48.3339116 12.605145,47.3055305 C12.6823193,46.9363681 12.7337689,46.5672056 12.8109432,46.1189369 C12.1678236,45.5124558 11.4989792,44.8796059 10.9330339,44.3522309 C10.6500612,43.3765873 10.4185382,42.5591562 10.2127399,41.7417251 C10.0583912,41.1088752 9.8525929,40.502394 9.44099633,39.9750191 C8.72070233,39.052113 8.33483054,37.9709944 8.18048183,36.8371383 C8.10330747,36.3625009 7.92323397,35.9406009 7.61453655,35.5450697 C6.84279298,34.5694261 6.09677419,33.5674138 5.29930584,32.6445077 C4.68191098,31.9325515 4.01306656,31.2733329 3.31849735,30.640483 C2.90690078,30.2449518 2.52102899,29.8230518 2.21233156,29.3484144 C1.49203757,28.1618208 0.720293998,27.001596 0,25.8413712 C0.0771743569,24.2065089 0.360146999,22.6507529 1.00326664,21.1477344 C1.15761535,20.8049407 1.36341364,20.4885157 1.54348714,20.1984595 C2.41812985,18.8800222 3.73009392,18.1680661 5.0163332,17.3770037 C5.71090241,17.3770037 6.43119641,17.3770037 7.12576562,17.3770037 C7.3315639,17.3770037 7.56308697,17.4033724 7.76888526,17.5088474 C9.36382197,18.2208036 10.9330339,18.9591284 12.5022458,19.6974533 C12.6823193,19.7765596 12.8109432,19.934772 12.965292,20.040247 C13.0681911,20.145722 13.1453655,20.2775657 13.2739894,20.3830407 C15.2033483,22.123378 16.0522662,24.5229339 16.9783585,26.8433835 C17.1841568,27.3443897 17.158432,27.9245021 17.2613312,28.451877 C17.6214782,30.3504268 17.4671294,32.301714 17.518579,34.2266324 C17.518579,34.7276386 17.6214782,35.2286448 17.7501021,35.7032822 C18.5732952,38.4720006 19.6022866,41.1352439 20.7856268,43.7457498 C21.3001225,44.8532371 21.6088199,45.9870932 21.7888934,47.1736868 C22.1490404,49.3886614 22.4834626,51.6300049 22.8693344,53.8449795 C22.9722336,54.4778294 23.1780318,55.1106793 23.3838301,55.7171605 C24.1555737,58.1694539 24.6443446,60.7008535 25.0559412,63.2586219 C25.2360147,64.4188467 25.3131891,65.6054403 25.4675378,66.7656651 C25.5704369,67.9258899 25.7505104,68.9806398 25.9048591,70.0353896 Z" id="Path"></path>
                <g id="Group" transform="translate(55.000000, 41.000000)">
                    <path d="M24.0371417,22.2233875 L24.0371417,28.1950708 C24.0371417,28.8495018 23.8009689,29.449397 23.3286233,29.9402202 C22.8562778,30.4310435 22.3052079,30.6764552 21.6491724,30.6764552 L4.80218006,30.6764552 L4.80218006,32.1216571 C4.80218006,32.9669638 5.14331853,33.6759308 5.8518369,34.2758259 L7.24263222,35.4756162 C8.00363343,36.0755113 8.7121518,36.3754588 9.39442874,36.3754588 L21.6491724,36.3754588 C22.2789665,36.3754588 22.8562778,36.6208705 23.3286233,37.0844258 C23.8009689,37.5752491 24.0371417,38.1478762 24.0371417,38.8295752 C24.0371417,39.4840063 23.8009689,40.0839014 23.3023819,40.5747247 C22.8300363,41.065548 22.2789665,41.3109596 21.6491724,41.3109596 L9.07953169,41.3109596 C8.23980622,41.3109596 7.37383932,41.1200839 6.45538958,40.7656004 C5.53693985,40.4111169 4.8546629,40.0293655 4.43480016,39.6203461 L2.30924505,37.6843209 C1.65320953,37.1389617 1.10213969,36.3754588 0.656035527,35.3938123 C0.209931369,34.4121657 0,33.512323 0,32.6942842 L0,21.3508128 C0,20.6963818 0.23617279,19.823807 0.73475979,18.7330886 C1.20710537,17.6423702 1.83689948,16.7697955 2.57165927,16.1699004 L4.56600727,14.5610907 C5.87807832,13.4703723 7.32135648,12.9250131 8.89584174,12.9250131 L15.5874041,12.9250131 C17.2668551,12.9250131 18.8675818,13.661248 20.3371013,15.1064499 L22.121518,16.8788673 C23.3811062,18.0513896 24.0371417,19.851075 24.0371417,22.2233875 Z M4.88090432,21.8416361 L4.88090432,25.6591505 L19.3399273,25.6591505 L19.3399273,22.2233875 C19.3399273,21.2962769 19.0775131,20.5873099 18.5264433,20.0964866 L17.135648,18.8421605 C16.4271296,18.2422653 15.7710941,17.9423178 15.2200242,17.9423178 L9.23698022,17.9423178 C8.50222043,17.9423178 7.81994348,18.2149974 7.2163908,18.7330886 L5.82559548,19.9328789 C5.19580137,20.4237021 4.88090432,21.0508652 4.88090432,21.8416361 Z" id="Shape"></path>
                    <path d="M35.1110214,38.8568432 L35.1110214,15.3791295 C35.1110214,14.6974305 35.3471942,14.0975354 35.7932983,13.6067121 C36.2656439,13.1158888 36.8167138,12.8432092 37.4727493,12.8432092 C38.1287848,12.8432092 38.7060961,13.0886209 39.1522002,13.5794442 C39.6245458,14.0702674 39.8344772,14.6701626 39.8344772,15.3791295 L39.8344772,18.460409 L43.7182075,15.024646 C45.3189342,13.6067121 46.8934195,12.8977451 48.4154219,12.8977451 L51.9055309,12.8977451 C53.8736375,12.8977451 55.5530884,13.6339801 56.9438837,15.079182 C58.334679,16.5243838 59.0431974,18.2695333 59.0431974,20.3146303 L59.0431974,21.6507604 C59.0431974,22.3597273 58.8070246,22.9596224 58.3609205,23.4504457 C57.8885749,23.941269 57.337505,24.1866807 56.6814695,24.1866807 C56.025434,24.1866807 55.4481227,23.941269 55.0020186,23.4777137 C54.529673,22.9868904 54.3197416,22.4142632 54.3197416,21.7325642 L54.3197416,20.3418983 C54.3197416,19.6601993 54.0835688,19.0603041 53.6374647,18.5967488 C53.1651191,18.1059255 52.6140493,17.8877819 51.9580137,17.8877819 L48.861526,17.8877819 C48.2054905,17.8877819 47.4707307,18.2422653 46.6572467,18.9785003 L39.88696,25.0865233 L39.88696,38.9113791 C39.88696,39.5930781 39.6507872,40.1929733 39.1784417,40.6565286 C38.7060961,41.1473519 38.1550262,41.3654955 37.4989907,41.3654955 C36.8429552,41.3654955 36.2656439,41.1200839 35.8195398,40.6565286 C35.3471942,40.1384373 35.1110214,39.5658102 35.1110214,38.8568432 Z" id="Path"></path>
                    <path d="M86.9115866,41.3382276 L82.1618894,41.3382276 C80.1937828,41.3382276 78.5143319,40.6019927 77.0972951,39.1567908 C75.6802584,37.7115889 74.97174,35.9664394 74.97174,33.9213424 L74.97174,17.8605139 L72.5312878,17.8605139 C71.8752523,17.8605139 71.2979411,17.6151023 70.8518369,17.1515469 C70.3794913,16.6879916 70.16956,16.0880965 70.16956,15.3791295 C70.16956,14.6974305 70.4057327,14.0975354 70.8518369,13.6339801 C71.3241825,13.1431568 71.8752523,12.9250131 72.5312878,12.9250131 L75.0242229,12.9250131 L75.0242229,6.844258 C75.0242229,6.16255899 75.2603956,5.56266387 75.7064998,5.09910855 C76.1788454,4.60828526 76.7299152,4.39014158 77.3859507,4.39014158 C78.0157449,4.39014158 78.5668147,4.63555322 79.0391603,5.12637651 C79.5115059,5.61719979 79.7739201,6.18982695 79.7739201,6.87152596 L79.7739201,12.9522811 L89.3520388,12.9522811 C89.9818329,12.9522811 90.5591441,13.1976927 91.0314897,13.688516 C91.5038353,14.1793393 91.7400081,14.7519664 91.7400081,15.4336654 C91.7400081,16.1153644 91.5038353,16.7152596 91.0314897,17.1788149 C90.5591441,17.6696382 90.0080743,17.8877819 89.3520388,17.8877819 L79.7214372,17.8877819 L79.7214372,33.9486104 C79.7214372,34.6030414 79.95761,35.2029365 80.456197,35.6937598 C80.9285426,36.1845831 81.5058539,36.4299948 82.1618894,36.4299948 L86.8066209,36.4299948 C88.0662091,36.4299948 88.9059346,35.7210278 89.3257973,34.3030939 C89.7456601,32.8851599 90.5329027,32.176193 91.7400081,32.176193 C92.4485264,32.176193 92.9995963,32.4216046 93.4457004,32.8851599 C93.8918046,33.3759832 94.101736,33.9758783 94.101736,34.6848453 C94.101736,36.1845831 93.419459,37.657053 92.0811465,39.1567908 C90.7428341,40.6019927 89.0109003,41.3382276 86.9115866,41.3382276 Z" id="Path"></path>
                    <path d="M124.46306,41.2836917 L109.951554,41.2836917 C109.295519,41.2836917 108.718208,41.03828 108.272103,40.5747247 C107.799758,40.0839014 107.589826,39.5112743 107.589826,38.8295752 C107.589826,38.1751442 107.825999,37.5752491 108.272103,37.0844258 C108.744449,36.5936025 109.295519,36.3481909 109.951554,36.3481909 L114.832459,36.3481909 L114.832459,17.8877819 L110.004037,17.8877819 C109.348002,17.8877819 108.77069,17.6423702 108.324586,17.1515469 C107.852241,16.6607236 107.642309,16.0880965 107.642309,15.4063975 C107.642309,14.7246985 107.878482,14.1248034 108.324586,13.6339801 C108.796932,13.1431568 109.348002,12.8704772 110.004037,12.8704772 L117.272911,12.8704772 C117.928946,12.8704772 118.506258,13.1158888 118.952362,13.6339801 C119.424707,14.1248034 119.634639,14.7246985 119.634639,15.4063975 L119.634639,36.3209229 L124.384336,36.3209229 C125.040371,36.3209229 125.617683,36.5663346 126.090028,37.0298899 C126.562374,37.5207132 126.824788,38.0933403 126.824788,38.7750393 C126.824788,39.4567383 126.588615,40.0566335 126.11627,40.5201888 C125.670166,41.03828 125.119096,41.2836917 124.46306,41.2836917 Z M114.779976,0 L117.272911,0 C117.928946,0 118.506258,0.245411641 118.952362,0.708966964 C119.424707,1.19979025 119.634639,1.77241741 119.634639,2.45411641 L119.634639,4.5810173 C119.634639,5.26271631 119.398466,5.86261143 118.952362,6.35343471 C118.480016,6.844258 117.928946,7.1169376 117.272911,7.1169376 L114.727493,7.1169376 C114.045216,7.1169376 113.467905,6.87152596 113.021801,6.35343471 C112.549455,5.83534347 112.339524,5.26271631 112.365765,4.63555322 L112.418248,2.45411641 C112.418248,1.77241741 112.654421,1.17252229 113.100525,0.708966964 C113.546629,0.245411641 114.12394,0 114.779976,0 Z" id="Shape"></path>
                    <path d="M161.962051,41.3382276 L151.780379,41.3382276 C149.995963,41.3382276 148.447719,40.7656004 147.188131,39.6476141 L142.569641,35.4756162 C141.100121,34.194022 140.365361,32.4761405 140.365361,30.2947037 L140.365361,23.8321972 C140.286637,21.7325642 141.126363,19.9056109 142.858296,18.3513372 L147.030682,14.6156266 C148.368995,13.4703723 149.812273,12.8977451 151.334275,12.8977451 L162.014534,12.8977451 C162.670569,12.8977451 163.247881,13.1431568 163.693985,13.6067121 C164.16633,14.0975354 164.376262,14.6701626 164.376262,15.3518616 C164.376262,16.0608285 164.140089,16.6607236 163.693985,17.124279 C163.221639,17.5878343 162.670569,17.8332459 162.014534,17.8332459 L151.780379,17.8332459 C151.150585,17.8332459 150.520791,18.1059255 149.94348,18.6240168 L146.138474,22.0325118 C145.50868,22.577871 145.193783,23.3141059 145.193783,24.2412166 L145.193783,30.2674358 C145.193783,30.9218668 145.429956,31.467226 145.928543,31.9035134 L150.12717,35.611956 C150.651998,36.1027792 151.360517,36.3481909 152.226484,36.3481909 L161.988292,36.3481909 C162.618086,36.3481909 163.195398,36.5936025 163.667743,37.0571578 C164.140089,37.5479811 164.376262,38.1206083 164.376262,38.8023073 C164.376262,39.4840063 164.140089,40.0839014 163.693985,40.5474567 C163.195398,41.0928159 162.644328,41.3382276 161.962051,41.3382276 Z" id="Path"></path>
                    <path d="M182.482842,23.4777137 L191.824788,23.4777137 C192.323375,23.4777137 193.084376,23.5867855 194.029067,23.8321972 L193.976585,20.3146303 C193.976585,19.6329313 193.740412,19.0330362 193.268066,18.5694809 C192.795721,18.0786576 192.244651,17.8605139 191.588615,17.8605139 L182.535325,17.8605139 C181.879289,17.8605139 181.32822,17.6151023 180.855874,17.124279 C180.383528,16.6334557 180.147356,16.0608285 180.147356,15.3791295 C180.147356,14.6974305 180.383528,14.0975354 180.829633,13.6339801 C181.301978,13.1431568 181.853048,12.9250131 182.509084,12.9250131 L191.562374,12.9250131 C193.53048,12.9250131 195.209931,13.6339801 196.600727,15.079182 C197.991522,16.5243838 198.726282,18.2695333 198.778765,20.3418983 L199.382317,38.8568432 C199.382317,39.5385422 199.146145,40.1384373 198.673799,40.6019927 C198.201453,41.0928159 197.650384,41.3109596 196.994348,41.3109596 C196.312071,41.3109596 195.73476,41.065548 195.262414,40.6019927 C194.790069,40.1111694 194.553896,39.5385422 194.553896,38.8568432 L190.512717,41.3382276 L182.456601,41.3382276 C180.462253,41.3382276 178.75656,40.6019927 177.339524,39.1567908 C175.948728,37.7115889 175.24021,35.9391715 175.24021,33.8668065 L175.24021,30.9764027 C175.24021,28.9040378 175.948728,27.1588883 177.365765,25.6864185 C178.782802,24.2139486 180.488494,23.4777137 182.482842,23.4777137 Z M194.396447,33.1305716 L194.26524,31.0309386 C194.238999,30.3219717 194.002826,29.7220766 193.556722,29.2585212 C193.110618,28.7949659 192.533306,28.5495543 191.877271,28.5495543 L182.482842,28.5495543 C181.826807,28.5495543 181.249495,28.7949659 180.803391,29.2585212 C180.331046,29.7493445 180.121114,30.3219717 180.121114,31.0036707 L180.121114,33.7850026 C180.121114,34.4394337 180.357287,35.0393288 180.829633,35.5301521 C181.301978,36.0209754 181.853048,36.266387 182.509084,36.266387 L189.226887,36.266387 L194.396447,33.1305716 Z" id="Shape"></path>
                    <path d="M229.664917,41.3382276 L215.258377,41.3382276 C214.602342,41.3382276 214.02503,41.0928159 213.578926,40.5747247 C213.106581,40.0839014 212.896649,39.4840063 212.896649,38.8023073 C212.896649,38.1478762 213.132822,37.5479811 213.578926,37.0571578 C214.051272,36.5663346 214.602342,36.3209229 215.258377,36.3209229 L220.008074,36.3209229 L220.008074,7.14420556 L215.179653,7.14420556 C214.523617,7.14420556 213.946306,6.89879392 213.500202,6.43523859 C213.027856,5.94441531 212.817925,5.37178815 212.817925,4.69008915 C212.817925,4.00839014 213.054098,3.40849502 213.500202,2.9449397 C213.972547,2.45411641 214.523617,2.23597273 215.179653,2.23597273 L222.448526,2.23597273 C223.078321,2.23597273 223.655632,2.48138437 224.127977,2.97220766 C224.600323,3.46303094 224.836496,4.0356581 224.836496,4.71735711 L224.836496,36.3209229 L229.664917,36.3209229 C230.294711,36.3209229 230.872023,36.5663346 231.344368,37.0571578 C231.816714,37.5479811 232.052887,38.1206083 232.052887,38.8023073 C232.052887,39.4840063 231.816714,40.0839014 231.37061,40.5747247 C230.898264,41.0928159 230.320953,41.3382276 229.664917,41.3382276 Z" id="Path"></path>
                    <path d="M258.582963,36.4027268 L267.190149,36.4027268 C267.846185,36.4027268 268.423496,36.6481384 268.895842,37.1116938 C269.368187,37.602517 269.630602,38.1751442 269.630602,38.8568432 C269.630602,39.5385422 269.394429,40.1384373 268.895842,40.6019927 C268.423496,41.0928159 267.846185,41.3109596 267.190149,41.3109596 L258.294308,41.3109596 C257.165927,41.3109596 255.985063,40.9292082 254.777957,40.1929733 C253.570852,39.4567383 252.731126,38.6114316 252.258781,37.6843209 L246.748082,26.6407971 C246.013323,25.0592554 245.645943,23.4231778 245.645943,21.7598322 C245.645943,19.9056109 245.987081,18.3240692 246.6956,16.9606712 L252.258781,6.02621919 C252.783609,5.01730467 253.597093,4.11746198 254.725474,3.32669114 C255.827614,2.56318825 256.929754,2.15416885 257.953169,2.15416885 L267.373839,2.15416885 C268.029875,2.15416885 268.607186,2.39958049 269.05329,2.89040378 C269.525636,3.38122706 269.735567,3.95385422 269.735567,4.63555322 C269.735567,5.31725223 269.499394,5.91714735 269.05329,6.40797063 C268.580945,6.89879392 268.029875,7.17147352 267.373839,7.17147352 L258.294308,7.17147352 C257.533306,7.17147352 256.929754,7.63502884 256.457408,8.56213949 L251.182883,18.8148925 C250.76302,19.6329313 250.553088,20.560042 250.553088,21.6780283 C250.553088,22.8505506 250.76302,23.8594651 251.235365,24.7320399 L256.273718,34.7939171 C256.719822,35.8846356 257.480824,36.4027268 258.582963,36.4027268 Z" id="Path"></path>
                    <path d="M280.573274,38.8568432 L280.573274,15.3791295 C280.573274,14.6974305 280.809447,14.0975354 281.255551,13.6067121 C281.727897,13.1158888 282.278966,12.8432092 282.935002,12.8432092 C283.591038,12.8432092 284.168349,13.0886209 284.614453,13.5794442 C285.086799,14.0702674 285.29673,14.6701626 285.29673,15.3791295 L285.29673,18.460409 L289.18046,15.024646 C290.781187,13.6067121 292.355672,12.8977451 293.877675,12.8977451 L297.367784,12.8977451 C299.33589,12.8977451 301.015341,13.6339801 302.406136,15.079182 C303.796932,16.5243838 304.50545,18.2695333 304.50545,20.3146303 L304.50545,21.6507604 C304.50545,22.3597273 304.269277,22.9596224 303.823173,23.4504457 C303.350828,23.941269 302.799758,24.1866807 302.143722,24.1866807 C301.487687,24.1866807 300.910375,23.941269 300.464271,23.4777137 C299.991926,22.9868904 299.781994,22.4142632 299.781994,21.7325642 L299.781994,20.3418983 C299.781994,19.6601993 299.545822,19.0603041 299.099717,18.5967488 C298.627372,18.1059255 298.076302,17.8877819 297.420266,17.8877819 L294.323779,17.8877819 C293.667743,17.8877819 292.932983,18.2422653 292.119499,18.9785003 L285.349213,25.0865233 L285.349213,38.9113791 C285.349213,39.5930781 285.11304,40.1929733 284.640694,40.6565286 C284.168349,41.1473519 283.617279,41.3654955 282.961243,41.3654955 C282.305208,41.3654955 281.727897,41.1200839 281.281792,40.6565286 C280.809447,40.1384373 280.573274,39.5658102 280.573274,38.8568432 Z" id="Path"></path>
                    <path d="M339.668954,20.1510225 L326.836899,50.3093865 C326.390795,51.4001049 325.656036,51.9181961 324.580137,51.9181961 L317.967299,51.9181961 C317.311264,51.9181961 316.733952,51.6727845 316.287848,51.2092292 C315.815503,50.7456738 315.605571,50.1457787 315.605571,49.4368117 C315.605571,48.7551127 315.841744,48.1824856 316.287848,47.6916623 C316.733952,47.200839 317.311264,46.9826953 317.967299,46.9826953 L323.058135,46.9826953 L326.312071,39.1295228 L325.157449,39.1295228 C324.08155,39.1295228 323.294308,38.5568956 322.821962,37.3843734 L315.684296,20.1237546 L315.684296,15.3518616 C315.684296,14.6701626 315.920468,14.0702674 316.366572,13.6067121 C316.812677,13.1158888 317.363746,12.8977451 318.019782,12.8977451 C318.675818,12.8977451 319.253129,13.1431568 319.725474,13.6067121 C320.19782,14.0975354 320.460234,14.6701626 320.460234,15.3518616 L320.460234,19.0330362 L326.731934,34.1122181 L328.385143,34.1122181 L334.866774,19.0875721 L334.866774,15.2973256 C334.866774,14.6428946 335.102947,14.0702674 335.601534,13.5794442 C336.07388,13.0886209 336.651191,12.8159413 337.307226,12.8159413 C337.937021,12.8159413 338.514332,13.0613529 338.986677,13.5521762 C339.459023,14.0429995 339.695196,14.6156266 339.695196,15.2973256 L339.695196,20.1510225 L339.668954,20.1510225 Z" id="Path"></path>
                    <path d="M355.518773,38.5023597 L355.518773,49.4640797 C355.518773,50.1730467 355.2826,50.7729418 354.836496,51.2637651 C354.36415,51.7545884 353.81308,52 353.157045,52 C352.501009,52 351.923698,51.7545884 351.451352,51.2637651 C350.979007,50.7729418 350.716593,50.1730467 350.716593,49.4640797 L350.716593,14.1793393 C350.716593,13.5249082 350.952765,12.9250131 351.425111,12.4341898 C351.897457,11.9433665 352.474768,11.6979549 353.157045,11.6979549 C353.786839,11.6979549 354.36415,11.9433665 354.836496,12.4341898 C355.308841,12.9250131 355.545014,13.4976403 355.545014,14.1793393 L355.545014,15.760881 C357.854259,13.0886209 360.137263,11.7524908 362.367784,11.7524908 L363.469923,11.7524908 C365.149374,11.7524908 366.697618,12.4069219 368.114655,13.688516 L372.077109,17.2606188 C373.809043,18.8421605 374.67501,20.8327216 374.67501,23.232302 L374.67501,30.9491348 C374.67501,33.3759832 373.730319,35.4483482 371.867178,37.1116938 L367.983448,40.5747247 C366.697618,41.8017829 365.07065,42.401678 363.102543,42.401678 L362.052887,42.401678 C360.189746,42.401678 358.641502,41.747247 357.355672,40.4111169 L355.518773,38.5023597 Z M362.236577,37.4116413 L363.443682,37.4116413 C364.020993,37.4116413 364.650787,37.1116938 365.306823,36.5117986 L369.033105,33.1305716 C369.662899,32.6124803 369.977796,31.9307813 369.977796,31.0309386 L369.977796,23.0414263 C369.977796,22.2506555 369.636657,21.5689565 368.928139,20.9417934 L364.939443,17.3696906 C364.493339,16.9606712 363.994752,16.7425275 363.469923,16.7425275 L362.079128,16.7425275 C361.5543,16.7425275 360.872023,17.2060829 360.006056,18.1059255 L356.463464,21.7598322 C355.83367,22.4142632 355.518773,23.1232302 355.518773,23.941269 L355.518773,30.2674358 C355.518773,31.0309386 355.859911,31.7671736 356.56843,32.5034085 L360.006056,36.0755113 C360.845781,36.975354 361.606782,37.4116413 362.236577,37.4116413 Z" id="Shape"></path>
                    <path d="M402.490916,41.3382276 L397.741219,41.3382276 C395.773113,41.3382276 394.093662,40.6019927 392.676625,39.1567908 C391.259588,37.7115889 390.55107,35.9664394 390.55107,33.9213424 L390.55107,17.8605139 L388.110618,17.8605139 C387.454582,17.8605139 386.877271,17.6151023 386.431167,17.1515469 C385.985063,16.6879916 385.74889,16.0880965 385.74889,15.3791295 C385.74889,14.6974305 385.985063,14.0975354 386.431167,13.6339801 C386.903512,13.1431568 387.454582,12.9250131 388.110618,12.9250131 L390.603553,12.9250131 L390.603553,6.844258 C390.603553,6.16255899 390.839725,5.56266387 391.28583,5.09910855 C391.758175,4.60828526 392.309245,4.39014158 392.965281,4.39014158 C393.595075,4.39014158 394.146145,4.63555322 394.61849,5.12637651 C395.090836,5.61719979 395.35325,6.18982695 395.35325,6.87152596 L395.35325,12.9522811 L404.931369,12.9522811 C405.561163,12.9522811 406.138474,13.1976927 406.61082,13.688516 C407.083165,14.1793393 407.319338,14.7519664 407.319338,15.4336654 C407.319338,16.1153644 407.083165,16.7152596 406.61082,17.1788149 C406.138474,17.6696382 405.587404,17.8877819 404.931369,17.8877819 L395.300767,17.8877819 L395.300767,33.9486104 C395.300767,34.6030414 395.53694,35.2029365 396.035527,35.6937598 C396.507872,36.1845831 397.085184,36.4299948 397.741219,36.4299948 L402.385951,36.4299948 C403.645539,36.4299948 404.485264,35.7210278 404.905127,34.3030939 C405.32499,32.8851599 406.112233,32.176193 407.319338,32.176193 C408.027856,32.176193 408.578926,32.4216046 409.02503,32.8851599 C409.471134,33.3759832 409.681066,33.9758783 409.681066,34.6848453 C409.681066,36.1845831 408.998789,37.657053 407.660476,39.1567908 C406.322164,40.6019927 404.59023,41.3382276 402.490916,41.3382276 Z" id="Path"></path>
                    <path d="M444.818329,21.8416361 L444.818329,32.2852648 C444.818329,34.4939696 443.821155,36.5663346 441.800565,38.4478238 C439.779976,40.3293131 437.706904,41.2836917 435.581348,41.2836917 L429.991926,41.2836917 C427.813888,41.2836917 425.740816,40.3293131 423.746468,38.4205558 C421.752119,36.5117986 420.781187,34.4667016 420.781187,32.3125328 L420.781187,21.868904 C420.781187,19.7147352 421.752119,17.6696382 423.693985,15.760881 C425.63585,13.8521238 427.735164,12.8977451 429.991926,12.8977451 L435.581348,12.8977451 C437.706904,12.8704772 439.779976,13.7703199 441.800565,15.6790771 C443.821155,17.5878343 444.818329,19.5783954 444.818329,21.8416361 Z M425.609608,22.0325118 L425.609608,32.0398532 C425.609608,32.9396959 425.924505,33.6486628 426.5543,34.194022 L428.338716,35.7755637 C428.732338,36.1300472 429.283407,36.293655 430.018167,36.293655 L435.555107,36.293655 C436.368591,36.293655 437.103351,35.9937074 437.759386,35.3938123 L439.202665,34.0576822 C439.779976,33.5941269 440.068631,32.9396959 440.068631,32.0943891 L440.068631,22.0870477 C440.068631,21.1054012 439.779976,20.3691662 439.202665,19.9056109 L437.523214,18.5149449 C436.945902,18.0241217 436.289867,17.77871 435.528866,17.77871 L430.595478,17.77871 C429.51958,17.77871 428.679855,18.0513896 428.102543,18.5694809 L426.475575,20.0146827 C425.898264,20.560042 425.609608,21.214473 425.609608,22.0325118 Z" id="Shape"></path>
                    <path d="M491.108195,37.9024646 L500.686314,4.0356581 C501.079935,2.8085999 501.867178,2.20870477 503.100525,2.20870477 C504.281389,2.20870477 505.04239,2.72679601 505.331046,3.7629785 L514.83044,38.1478762 C514.909164,38.3932879 514.935406,38.6386995 514.935406,38.8841112 C514.935406,39.5658102 514.699233,40.1657053 514.253129,40.6292606 C513.807025,41.1200839 513.282196,41.3382276 512.704885,41.3382276 C511.445297,41.3382276 510.658054,40.7383325 510.316916,39.5385422 L508.427533,32.830624 L497.511102,32.830624 L495.43803,40.0293655 C495.385547,40.3293131 495.149374,40.6292606 494.729512,40.9292082 C494.309649,41.2018878 493.863545,41.3654955 493.364958,41.3654955 C492.656439,41.3654955 492.079128,41.1200839 491.633024,40.6292606 C491.18692,40.1384373 490.950747,39.5385422 490.950747,38.8295752 C490.976988,38.5023597 491.00323,38.2024122 491.108195,37.9024646 Z M503.074283,13.661248 L498.980622,27.8405873 L507.036738,27.8405873 L503.074283,13.661248 Z" id="Shape"></path>
                    <path d="M526.035527,38.8568432 L526.035527,15.3791295 C526.035527,14.6974305 526.2717,14.0975354 526.717804,13.6067121 C527.190149,13.1158888 527.741219,12.8432092 528.397255,12.8432092 C529.05329,12.8432092 529.630602,13.0886209 530.076706,13.5794442 C530.549051,14.0702674 530.758983,14.6701626 530.758983,15.3791295 L530.758983,18.460409 L534.642713,15.024646 C536.24344,13.6067121 537.817925,12.8977451 539.339927,12.8977451 L542.830036,12.8977451 C544.798143,12.8977451 546.477594,13.6339801 547.868389,15.079182 C549.259184,16.5243838 549.967703,18.2695333 549.967703,20.3146303 L549.967703,21.6507604 C549.967703,22.3597273 549.73153,22.9596224 549.285426,23.4504457 C548.81308,23.941269 548.26201,24.1866807 547.605975,24.1866807 C546.949939,24.1866807 546.372628,23.941269 545.926524,23.4777137 C545.454178,22.9868904 545.244247,22.4142632 545.244247,21.7325642 L545.244247,20.3418983 C545.244247,19.6601993 545.008074,19.0603041 544.56197,18.5967488 C544.089625,18.1059255 543.538555,17.8877819 542.882519,17.8877819 L539.786031,17.8877819 C539.129996,17.8877819 538.395236,18.2422653 537.581752,18.9785003 L530.811465,25.0865233 L530.811465,38.9113791 C530.811465,39.5930781 530.575293,40.1929733 530.102947,40.6565286 C529.630602,41.1473519 529.079532,41.3654955 528.423496,41.3654955 C527.767461,41.3654955 527.190149,41.1200839 526.744045,40.6565286 C526.2717,40.1384373 526.035527,39.5658102 526.035527,38.8568432 Z" id="Path"></path>
                    <path d="M577.809851,41.3382276 L573.060153,41.3382276 C571.092047,41.3382276 569.412596,40.6019927 567.995559,39.1567908 C566.578522,37.7115889 565.870004,35.9664394 565.870004,33.9213424 L565.870004,17.8605139 L563.429552,17.8605139 C562.773516,17.8605139 562.196205,17.6151023 561.750101,17.1515469 C561.303997,16.6879916 561.067824,16.0880965 561.067824,15.3791295 C561.067824,14.6974305 561.303997,14.0975354 561.750101,13.6339801 C562.222447,13.1431568 562.773516,12.9250131 563.429552,12.9250131 L565.922487,12.9250131 L565.922487,6.844258 C565.922487,6.16255899 566.15866,5.56266387 566.604764,5.09910855 C567.077109,4.60828526 567.628179,4.39014158 568.284215,4.39014158 C568.914009,4.39014158 569.465079,4.63555322 569.937424,5.12637651 C570.40977,5.61719979 570.672184,6.18982695 570.672184,6.87152596 L570.672184,12.9522811 L580.250303,12.9522811 C580.880097,12.9522811 581.457408,13.1976927 581.929754,13.688516 C582.402099,14.1793393 582.638272,14.7519664 582.638272,15.4336654 C582.638272,16.1153644 582.402099,16.7152596 581.929754,17.1788149 C581.457408,17.6696382 580.906338,17.8877819 580.250303,17.8877819 L570.619701,17.8877819 L570.619701,33.9486104 C570.619701,34.6030414 570.855874,35.2029365 571.354461,35.6937598 C571.826807,36.1845831 572.404118,36.4299948 573.060153,36.4299948 L577.704885,36.4299948 C578.964473,36.4299948 579.804199,35.7210278 580.224061,34.3030939 C580.643924,32.8851599 581.431167,32.176193 582.638272,32.176193 C583.34679,32.176193 583.89786,32.4216046 584.343964,32.8851599 C584.790069,33.3759832 585,33.9758783 585,34.6848453 C585,36.1845831 584.317723,37.657053 582.979411,39.1567908 C581.641098,40.6019927 579.909164,41.3382276 577.809851,41.3382276 Z" id="Path"></path>
                </g>
            </g>
        </g>
    </g>
</svg>